<svg width="20" height="21" viewBox="0 0 20 21" fill="none" xmlns="http://www.w3.org/2000/svg">
<path d="M9.20835 12.8166L7.66669 14.3582C7.34169 14.6832 6.82502 14.6832 6.49169 14.3666C6.40002 14.2749 6.30835 14.1916 6.21669 14.0999C5.35835 13.2332 4.58335 12.3249 3.89169 11.3749C3.20835 10.4249 2.65835 9.4749 2.25835 8.53324C1.86669 7.58324 1.66669 6.6749 1.66669 5.80824C1.66669 5.24157 1.76669 4.6999 1.96669 4.1999C2.16669 3.69157 2.48335 3.2249 2.92502 2.80824C3.45835 2.28324 4.04169 2.0249 4.65835 2.0249C4.89169 2.0249 5.12502 2.0749 5.33335 2.1749C5.55002 2.2749 5.74169 2.4249 5.89169 2.64157L7.82502 5.36657C7.97502 5.5749 8.08335 5.76657 8.15835 5.9499C8.23335 6.1249 8.27502 6.2999 8.27502 6.45824C8.27502 6.65824 8.21669 6.85824 8.10002 7.0499C7.99169 7.24157 7.83335 7.44157 7.63335 7.64157L7.00002 8.2999C6.90835 8.39157 6.86669 8.4999 6.86669 8.63324C6.86669 8.6999 6.87502 8.75824 6.89169 8.8249C6.91669 8.89157 6.94169 8.94157 6.95835 8.99157C7.10835 9.26657 7.36669 9.6249 7.73335 10.0582C8.10835 10.4916 8.50835 10.9332 8.94169 11.3749C9.02502 11.4582 9.11669 11.5416 9.20002 11.6249C9.53335 11.9499 9.54169 12.4832 9.20835 12.8166Z" fill="#FFD700"/>
<path d="M18.3083 15.6336C18.3083 15.8669 18.2667 16.1086 18.1833 16.3419C18.1583 16.4086 18.1333 16.4753 18.1 16.5419C17.9583 16.8419 17.775 17.1253 17.5333 17.3919C17.125 17.8419 16.675 18.1669 16.1667 18.3753C16.1583 18.3753 16.15 18.3836 16.1417 18.3836C15.65 18.5836 15.1167 18.6919 14.5417 18.6919C13.6917 18.6919 12.7833 18.4919 11.825 18.0836C10.8667 17.6753 9.90833 17.1253 8.95833 16.4336C8.63333 16.1919 8.30833 15.9503 8 15.6919L10.725 12.9669C10.9583 13.1419 11.1667 13.2753 11.3417 13.3669C11.3833 13.3836 11.4333 13.4086 11.4917 13.4336C11.5583 13.4586 11.625 13.4669 11.7 13.4669C11.8417 13.4669 11.95 13.4169 12.0417 13.3253L12.675 12.7003C12.8833 12.4919 13.0833 12.3336 13.275 12.2336C13.4667 12.1169 13.6583 12.0586 13.8667 12.0586C14.025 12.0586 14.1917 12.0919 14.375 12.1669C14.5583 12.2419 14.75 12.3503 14.9583 12.4919L17.7167 14.4503C17.9333 14.6003 18.0833 14.7753 18.175 14.9836C18.2583 15.1919 18.3083 15.4003 18.3083 15.6336Z" fill="#FFD700"/>
</svg>
