<svg width="20" height="21" viewBox="0 0 20 21" fill="none" xmlns="http://www.w3.org/2000/svg">
<path d="M14.1667 3.2749H5.83335C3.33335 3.2749 1.66669 4.5249 1.66669 7.44157V13.2749C1.66669 16.1916 3.33335 17.4416 5.83335 17.4416H14.1667C16.6667 17.4416 18.3334 16.1916 18.3334 13.2749V7.44157C18.3334 4.5249 16.6667 3.2749 14.1667 3.2749ZM14.5584 8.3499L11.95 10.4332C11.4 10.8749 10.7 11.0916 10 11.0916C9.30002 11.0916 8.59169 10.8749 8.05002 10.4332L5.44169 8.3499C5.17502 8.13324 5.13335 7.73324 5.34169 7.46657C5.55835 7.1999 5.95002 7.1499 6.21669 7.36657L8.82502 9.4499C9.45835 9.95824 10.5334 9.95824 11.1667 9.4499L13.775 7.36657C14.0417 7.1499 14.4417 7.19157 14.65 7.46657C14.8667 7.73324 14.825 8.13324 14.5584 8.3499Z" fill="#FFD700"/>
</svg>
