<svg width="20" height="20" viewBox="0 0 20 20" fill="none" xmlns="http://www.w3.org/2000/svg">
<path d="M9.20835 12.4582L7.66669 13.9998C7.34169 14.3248 6.82502 14.3248 6.49169 14.0082C6.40002 13.9165 6.30835 13.8332 6.21669 13.7415C5.35835 12.8748 4.58335 11.9665 3.89169 11.0165C3.20835 10.0665 2.65835 9.1165 2.25835 8.17484C1.86669 7.22484 1.66669 6.3165 1.66669 5.44984C1.66669 4.88317 1.76669 4.3415 1.96669 3.8415C2.16669 3.33317 2.48335 2.8665 2.92502 2.44984C3.45835 1.92484 4.04169 1.6665 4.65835 1.6665C4.89169 1.6665 5.12502 1.7165 5.33335 1.8165C5.55002 1.9165 5.74169 2.0665 5.89169 2.28317L7.82502 5.00817C7.97502 5.2165 8.08335 5.40817 8.15835 5.5915C8.23335 5.7665 8.27502 5.9415 8.27502 6.09984C8.27502 6.29984 8.21669 6.49984 8.10002 6.6915C7.99169 6.88317 7.83335 7.08317 7.63335 7.28317L7.00002 7.9415C6.90835 8.03317 6.86669 8.1415 6.86669 8.27484C6.86669 8.3415 6.87502 8.39984 6.89169 8.4665C6.91669 8.53317 6.94169 8.58317 6.95835 8.63317C7.10835 8.90817 7.36669 9.2665 7.73335 9.69984C8.10835 10.1332 8.50835 10.5748 8.94169 11.0165C9.02502 11.0998 9.11669 11.1832 9.20002 11.2665C9.53335 11.5915 9.54169 12.1248 9.20835 12.4582Z" fill="#FFD700"/>
<path d="M18.3083 15.2752C18.3083 15.5085 18.2667 15.7502 18.1833 15.9835C18.1583 16.0502 18.1333 16.1169 18.1 16.1835C17.9583 16.4835 17.775 16.7669 17.5333 17.0335C17.125 17.4835 16.675 17.8085 16.1667 18.0169C16.1583 18.0169 16.15 18.0252 16.1417 18.0252C15.65 18.2252 15.1167 18.3335 14.5417 18.3335C13.6917 18.3335 12.7833 18.1335 11.825 17.7252C10.8667 17.3169 9.90833 16.7669 8.95833 16.0752C8.63333 15.8335 8.30833 15.5919 8 15.3335L10.725 12.6085C10.9583 12.7835 11.1667 12.9169 11.3417 13.0085C11.3833 13.0252 11.4333 13.0502 11.4917 13.0752C11.5583 13.1002 11.625 13.1085 11.7 13.1085C11.8417 13.1085 11.95 13.0585 12.0417 12.9669L12.675 12.3419C12.8833 12.1335 13.0833 11.9752 13.275 11.8752C13.4667 11.7585 13.6583 11.7002 13.8667 11.7002C14.025 11.7002 14.1917 11.7335 14.375 11.8085C14.5583 11.8835 14.75 11.9919 14.9583 12.1335L17.7167 14.0919C17.9333 14.2419 18.0833 14.4169 18.175 14.6252C18.2583 14.8335 18.3083 15.0419 18.3083 15.2752Z" fill="#FFD700"/>
</svg>
